<?xml version="1.0" encoding="UTF-8" standalone="no"?><svg xmlns="http://www.w3.org/2000/svg" xmlns:xlink="http://www.w3.org/1999/xlink" contentScriptType="application/ecmascript" contentStyleType="text/css" height="875.0897px" preserveAspectRatio="none" style="width:1000px;height:875px;background:#FFFFFF;" version="1.1" viewBox="0 0 1000 875" width="1000.7179px" zoomAndPan="magnify"><defs/><g><rect fill="none" height="18.8779" style="stroke:none;stroke-width:0.7178750897343861;" width="112.7064" x="424.9821" y="10.7681"/><text fill="#000000" font-family="sans-serif" font-size="10.0503" font-weight="bold" lengthAdjust="spacing" textLength="105.5276" x="428.5714" y="23.6864">Requirements Map</text><rect fill="#FFFFFF" height="33.2354" rx="8.9734" ry="8.9734" style="stroke:#000000;stroke-width:1.0768126346015792;" width="134.9605" x="7.1788" y="433.7732"/><text fill="#000000" font-family="sans-serif" font-size="10.0503" font-weight="bold" lengthAdjust="spacing" textLength="109.8349" x="17.9469" y="453.8702">1. View Home Page</text><rect fill="#FFFFFF" height="33.2354" rx="8.9734" ry="8.9734" style="stroke:#000000;stroke-width:1.0768126346015792;" width="133.5248" x="178.033" y="41.132"/><text fill="#000000" font-family="sans-serif" font-size="10.0503" font-weight="bold" lengthAdjust="spacing" textLength="108.3991" x="188.8011" y="61.229">2. View Info Footer</text><path d="M142.1393,450.3909 L149.318,450.3909 C160.0861,450.3909 160.0861,57.7497 170.8543,57.7497 L178.033,57.7497 " fill="none" style="stroke:#000000;stroke-width:0.7178750897343861;"/><rect fill="#FFFFFF" height="33.2354" rx="8.9734" ry="8.9734" style="stroke:#000000;stroke-width:1.0768126346015792;" width="69.6339" x="178.033" y="112.5213"/><text fill="#000000" font-family="sans-serif" font-size="10.0503" lengthAdjust="spacing" textLength="48.0976" x="188.8011" y="132.6183">Add Todo</text><rect fill="#FFFFFF" height="33.2354" rx="8.9734" ry="8.9734" style="stroke:#000000;stroke-width:1.0768126346015792;" width="146.4465" x="283.5607" y="88.7249"/><text fill="#000000" font-family="sans-serif" font-size="10.0503" font-weight="bold" lengthAdjust="spacing" textLength="121.3209" x="294.3288" y="108.8219">3. Add Todo (on blur)</text><path d="M247.6669,129.139 L254.8457,129.139 C265.6138,129.139 265.6138,105.3426 276.3819,105.3426 L283.5607,105.3426 " fill="none" style="stroke:#000000;stroke-width:0.7178750897343861;"/><rect fill="#FFFFFF" height="33.2354" rx="8.9734" ry="8.9734" style="stroke:#000000;stroke-width:1.0768126346015792;" width="155.061" x="283.5607" y="136.3177"/><text fill="#000000" font-family="sans-serif" font-size="10.0503" font-weight="bold" lengthAdjust="spacing" textLength="129.9354" x="294.3288" y="156.4147">4. Add Todo (on enter)</text><path d="M247.6669,129.139 L254.8457,129.139 C265.6138,129.139 265.6138,152.9354 276.3819,152.9354 L283.5607,152.9354 " fill="none" style="stroke:#000000;stroke-width:0.7178750897343861;"/><path d="M142.1393,450.3909 L149.318,450.3909 C160.0861,450.3909 160.0861,129.139 170.8543,129.139 L178.033,129.139 " fill="none" style="stroke:#000000;stroke-width:0.7178750897343861;"/><rect fill="#FFFFFF" height="33.2354" rx="8.9734" ry="8.9734" style="stroke:#000000;stroke-width:1.0768126346015792;" width="92.6059" x="178.033" y="481.3661"/><text fill="#000000" font-family="sans-serif" font-size="10.0503" lengthAdjust="spacing" textLength="71.0696" x="188.8011" y="501.4631">View Todo List</text><rect fill="#FFFFFF" height="33.2354" rx="8.9734" ry="8.9734" style="stroke:#000000;stroke-width:1.0768126346015792;" width="113.4243" x="306.5327" y="326.6892"/><text fill="#000000" font-family="sans-serif" font-size="10.0503" lengthAdjust="spacing" textLength="91.888" x="317.3008" y="346.7862">Manage One Todo</text><rect fill="#FFFFFF" height="33.2354" rx="8.9734" ry="8.9734" style="stroke:#000000;stroke-width:1.0768126346015792;" width="167.9828" x="455.8507" y="183.9106"/><text fill="#000000" font-family="sans-serif" font-size="10.0503" font-weight="bold" lengthAdjust="spacing" textLength="142.8571" x="466.6188" y="204.0076">5. Toggle Todo Complete</text><path d="M419.9569,343.3069 L427.1357,343.3069 C437.9038,343.3069 437.9038,200.5283 448.6719,200.5283 L455.8507,200.5283 " fill="none" style="stroke:#000000;stroke-width:0.7178750897343861;"/><rect fill="#FFFFFF" height="33.2354" rx="8.9734" ry="8.9734" style="stroke:#000000;stroke-width:1.0768126346015792;" width="167.2649" x="455.8507" y="231.5035"/><text fill="#000000" font-family="sans-serif" font-size="10.0503" font-weight="bold" lengthAdjust="spacing" textLength="142.1393" x="466.6188" y="251.6005">6. Delete Todo (from list)</text><path d="M419.9569,343.3069 L427.1357,343.3069 C437.9038,343.3069 437.9038,248.1212 448.6719,248.1212 L455.8507,248.1212 " fill="none" style="stroke:#000000;stroke-width:0.7178750897343861;"/><rect fill="#FFFFFF" height="33.2354" rx="8.9734" ry="8.9734" style="stroke:#000000;stroke-width:1.0768126346015792;" width="150.7538" x="455.8507" y="374.2821"/><text fill="#000000" font-family="sans-serif" font-size="10.0503" font-weight="bold" lengthAdjust="spacing" textLength="125.6281" x="466.6188" y="394.3791">7. Enable Todo Editing</text><rect fill="#FFFFFF" height="33.2354" rx="8.9734" ry="8.9734" style="stroke:#000000;stroke-width:1.0768126346015792;" width="83.9914" x="642.4982" y="302.8928"/><text fill="#000000" font-family="sans-serif" font-size="10.0503" lengthAdjust="spacing" textLength="62.4551" x="653.2663" y="322.9898">Change Title</text><rect fill="#FFFFFF" height="33.2354" rx="8.9734" ry="8.9734" style="stroke:#000000;stroke-width:1.0768126346015792;" width="162.9576" x="762.3833" y="279.0964"/><text fill="#000000" font-family="sans-serif" font-size="10.0503" font-weight="bold" lengthAdjust="spacing" textLength="137.832" x="773.1515" y="299.1934">8. Change Title (on blur)</text><path d="M726.4896,319.5105 L733.6683,319.5105 C744.4365,319.5105 744.4365,295.7141 755.2046,295.7141 L762.3833,295.7141 " fill="none" style="stroke:#000000;stroke-width:0.7178750897343861;"/><rect fill="#FFFFFF" height="33.2354" rx="8.9734" ry="8.9734" style="stroke:#000000;stroke-width:1.0768126346015792;" width="171.5721" x="762.3833" y="326.6892"/><text fill="#000000" font-family="sans-serif" font-size="10.0503" font-weight="bold" lengthAdjust="spacing" textLength="146.4465" x="773.1515" y="346.7862">9. Change Title (on enter)</text><path d="M726.4896,319.5105 L733.6683,319.5105 C744.4365,319.5105 744.4365,343.3069 755.2046,343.3069 L762.3833,343.3069 " fill="none" style="stroke:#000000;stroke-width:0.7178750897343861;"/><path d="M606.6045,390.8998 L613.7832,390.8998 C624.5513,390.8998 624.5513,319.5105 635.3195,319.5105 L642.4982,319.5105 " fill="none" style="stroke:#000000;stroke-width:0.7178750897343861;"/><rect fill="#FFFFFF" height="33.2354" rx="8.9734" ry="8.9734" style="stroke:#000000;stroke-width:1.0768126346015792;" width="163.6755" x="642.4982" y="374.2821"/><text fill="#000000" font-family="sans-serif" font-size="10.0503" font-weight="bold" lengthAdjust="spacing" textLength="138.5499" x="653.2663" y="394.3791">10. Cancel Todo Change</text><path d="M606.6045,390.8998 L613.7832,390.8998 C624.5513,390.8998 624.5513,390.8998 635.3195,390.8998 L642.4982,390.8998 " fill="none" style="stroke:#000000;stroke-width:0.7178750897343861;"/><rect fill="#FFFFFF" height="33.2354" rx="8.9734" ry="8.9734" style="stroke:#000000;stroke-width:1.0768126346015792;" width="137.1141" x="642.4982" y="445.6714"/><text fill="#000000" font-family="sans-serif" font-size="10.0503" lengthAdjust="spacing" textLength="115.5779" x="653.2663" y="465.7684">Delete Todo (from edit)</text><rect fill="#FFFFFF" height="33.2354" rx="8.9734" ry="8.9734" style="stroke:#000000;stroke-width:1.0768126346015792;" width="167.9828" x="815.5061" y="421.875"/><text fill="#000000" font-family="sans-serif" font-size="10.0503" font-weight="bold" lengthAdjust="spacing" textLength="142.8571" x="826.2742" y="441.972">11. Delete Todo (on blur)</text><path d="M779.6123,462.2891 L786.7911,462.2891 C797.5592,462.2891 797.5592,438.4927 808.3274,438.4927 L815.5061,438.4927 " fill="none" style="stroke:#000000;stroke-width:0.7178750897343861;"/><rect fill="#FFFFFF" height="33.2354" rx="8.9734" ry="8.9734" style="stroke:#000000;stroke-width:1.0768126346015792;" width="176.5973" x="815.5061" y="469.4679"/><text fill="#000000" font-family="sans-serif" font-size="10.0503" font-weight="bold" lengthAdjust="spacing" textLength="151.4716" x="826.2742" y="489.5649">12. Delete Todo (on enter)</text><path d="M779.6123,462.2891 L786.7911,462.2891 C797.5592,462.2891 797.5592,486.0856 808.3274,486.0856 L815.5061,486.0856 " fill="none" style="stroke:#000000;stroke-width:0.7178750897343861;"/><path d="M606.6045,390.8998 L613.7832,390.8998 C624.5513,390.8998 624.5513,462.2891 635.3195,462.2891 L642.4982,462.2891 " fill="none" style="stroke:#000000;stroke-width:0.7178750897343861;"/><path d="M419.9569,343.3069 L427.1357,343.3069 C437.9038,343.3069 437.9038,390.8998 448.6719,390.8998 L455.8507,390.8998 " fill="none" style="stroke:#000000;stroke-width:0.7178750897343861;"/><path d="M270.6389,497.9838 L277.8177,497.9838 C288.5858,497.9838 288.5858,343.3069 299.3539,343.3069 L306.5327,343.3069 " fill="none" style="stroke:#000000;stroke-width:0.7178750897343861;"/><rect fill="#FFFFFF" height="33.2354" rx="8.9734" ry="8.9734" style="stroke:#000000;stroke-width:1.0768126346015792;" width="134.2426" x="306.5327" y="540.8572"/><text fill="#000000" font-family="sans-serif" font-size="10.0503" lengthAdjust="spacing" textLength="112.7064" x="317.3008" y="560.9542">Manage Several Todos</text><rect fill="#FFFFFF" height="33.2354" rx="8.9734" ry="8.9734" style="stroke:#000000;stroke-width:1.0768126346015792;" width="198.8514" x="476.6691" y="517.0608"/><text fill="#000000" font-family="sans-serif" font-size="10.0503" font-weight="bold" lengthAdjust="spacing" textLength="173.7258" x="487.4372" y="537.1577">13. Toggle All Todos Complete</text><path d="M440.7753,557.4749 L447.9541,557.4749 C458.7222,557.4749 458.7222,533.6784 469.4903,533.6784 L476.6691,533.6784 " fill="none" style="stroke:#000000;stroke-width:0.7178750897343861;"/><rect fill="#FFFFFF" height="33.2354" rx="8.9734" ry="8.9734" style="stroke:#000000;stroke-width:1.0768126346015792;" width="179.4688" x="476.6691" y="564.6536"/><text fill="#000000" font-family="sans-serif" font-size="10.0503" font-weight="bold" lengthAdjust="spacing" textLength="154.3431" x="487.4372" y="584.7506">14. Clear Completed Todos</text><path d="M440.7753,557.4749 L447.9541,557.4749 C458.7222,557.4749 458.7222,581.2713 469.4903,581.2713 L476.6691,581.2713 " fill="none" style="stroke:#000000;stroke-width:0.7178750897343861;"/><path d="M270.6389,497.9838 L277.8177,497.9838 C288.5858,497.9838 288.5858,557.4749 299.3539,557.4749 L306.5327,557.4749 " fill="none" style="stroke:#000000;stroke-width:0.7178750897343861;"/><rect fill="#FFFFFF" height="33.2354" rx="8.9734" ry="8.9734" style="stroke:#000000;stroke-width:1.0768126346015792;" width="134.9605" x="306.5327" y="588.4501"/><text fill="#000000" font-family="sans-serif" font-size="10.0503" font-weight="bold" lengthAdjust="spacing" textLength="109.8349" x="317.3008" y="608.5471">15. View Items Left</text><path d="M270.6389,497.9838 L277.8177,497.9838 C288.5858,497.9838 288.5858,605.0677 299.3539,605.0677 L306.5327,605.0677 " fill="none" style="stroke:#000000;stroke-width:0.7178750897343861;"/><rect fill="#FFFFFF" height="33.2354" rx="8.9734" ry="8.9734" style="stroke:#000000;stroke-width:1.0768126346015792;" width="79.6841" x="306.5327" y="707.4323"/><text fill="#000000" font-family="sans-serif" font-size="10.0503" lengthAdjust="spacing" textLength="58.1479" x="317.3008" y="727.5292">Filter Todos</text><rect fill="#FFFFFF" height="33.2354" rx="8.9734" ry="8.9734" style="stroke:#000000;stroke-width:1.0768126346015792;" width="134.2426" x="422.1106" y="636.0429"/><text fill="#000000" font-family="sans-serif" font-size="10.0503" font-weight="bold" lengthAdjust="spacing" textLength="109.117" x="432.8787" y="656.1399">16. Show All Todos</text><path d="M386.2168,724.0499 L393.3955,724.0499 C404.1637,724.0499 404.1637,652.6606 414.9318,652.6606 L422.1106,652.6606 " fill="none" style="stroke:#000000;stroke-width:0.7178750897343861;"/><rect fill="#FFFFFF" height="33.2354" rx="8.9734" ry="8.9734" style="stroke:#000000;stroke-width:1.0768126346015792;" width="155.7789" x="422.1106" y="683.6358"/><text fill="#000000" font-family="sans-serif" font-size="10.0503" font-weight="bold" lengthAdjust="spacing" textLength="130.6533" x="432.8787" y="703.7328">17. Show Active Todos</text><path d="M386.2168,724.0499 L393.3955,724.0499 C404.1637,724.0499 404.1637,700.2535 414.9318,700.2535 L422.1106,700.2535 " fill="none" style="stroke:#000000;stroke-width:0.7178750897343861;"/><rect fill="#FFFFFF" height="33.2354" rx="8.9734" ry="8.9734" style="stroke:#000000;stroke-width:1.0768126346015792;" width="181.6224" x="422.1106" y="731.2287"/><text fill="#000000" font-family="sans-serif" font-size="10.0503" font-weight="bold" lengthAdjust="spacing" textLength="156.4968" x="432.8787" y="751.3257">18. Show Completed Todos</text><path d="M386.2168,724.0499 L393.3955,724.0499 C404.1637,724.0499 404.1637,747.8464 414.9318,747.8464 L422.1106,747.8464 " fill="none" style="stroke:#000000;stroke-width:0.7178750897343861;"/><rect fill="#FFFFFF" height="33.2354" rx="8.9734" ry="8.9734" style="stroke:#000000;stroke-width:1.0768126346015792;" width="166.547" x="422.1106" y="778.8216"/><text fill="#000000" font-family="sans-serif" font-size="10.0503" font-weight="bold" lengthAdjust="spacing" textLength="141.4214" x="432.8787" y="798.9186">19. Change Browser URL</text><path d="M386.2168,724.0499 L393.3955,724.0499 C404.1637,724.0499 404.1637,795.4392 414.9318,795.4392 L422.1106,795.4392 " fill="none" style="stroke:#000000;stroke-width:0.7178750897343861;"/><path d="M270.6389,497.9838 L277.8177,497.9838 C288.5858,497.9838 288.5858,724.0499 299.3539,724.0499 L306.5327,724.0499 " fill="none" style="stroke:#000000;stroke-width:0.7178750897343861;"/><path d="M142.1393,450.3909 L149.318,450.3909 C160.0861,450.3909 160.0861,497.9838 170.8543,497.9838 L178.033,497.9838 " fill="none" style="stroke:#000000;stroke-width:0.7178750897343861;"/><rect fill="#FFFFFF" height="33.2354" rx="8.9734" ry="8.9734" style="stroke:#000000;stroke-width:1.0768126346015792;" width="118.4494" x="178.033" y="826.4144"/><text fill="#000000" font-family="sans-serif" font-size="10.0503" font-weight="bold" lengthAdjust="spacing" textLength="93.3238" x="188.8011" y="846.5114">20. Persist Todo</text><path d="M142.1393,450.3909 L149.318,450.3909 C160.0861,450.3909 160.0861,843.0321 170.8543,843.0321 L178.033,843.0321 " fill="none" style="stroke:#000000;stroke-width:0.7178750897343861;"/><!--MD5=[099cf2911d02767bbe3fcb87a3bad6bf]
@startmindmap

scale 1000 width

skinparam Shadowing false

<style>
node {
    LineColor black
    ArrowLineColor black
    BackgroundColor white
    FontSize 14
    Padding 15
}

arrow {
    LineColor black
}

.rule {
    FontStyle bold
}

</style>

Title Requirements Map

* 1. View Home Page <<rule>>
** 2. View Info Footer <<rule>>
** Add Todo
*** 3. Add Todo (on blur) <<rule>>
*** 4. Add Todo (on enter) <<rule>>

** View Todo List

*** Manage One Todo
****  5. Toggle Todo Complete <<rule>>
**** 6. Delete Todo (from list) <<rule>>
**** 7. Enable Todo Editing <<rule>>
***** Change Title
******  8. Change Title (on blur) <<rule>>
******  9. Change Title (on enter) <<rule>>
***** 10. Cancel Todo Change <<rule>>
***** Delete Todo (from edit)
******  11. Delete Todo (on blur) <<rule>>
******  12. Delete Todo (on enter) <<rule>>

*** Manage Several Todos
**** 13. Toggle All Todos Complete <<rule>>
**** 14. Clear Completed Todos <<rule>>

*** 15. View Items Left <<rule>>

*** Filter Todos
**** 16. Show All Todos <<rule>>
**** 17. Show Active Todos <<rule>>
**** 18. Show Completed Todos <<rule>>
**** 19. Change Browser URL <<rule>>

**  20. Persist Todo <<rule>>

@endmindmap

PlantUML version 1.2021.7(Sun May 23 08:40:07 EDT 2021)
(GPL source distribution)
Java Runtime: OpenJDK Runtime Environment
JVM: OpenJDK 64-Bit Server VM
Default Encoding: UTF-8
Language: en
Country: US
--></g></svg>